<svg xmlns="http://www.w3.org/2000/svg" xmlns:xlink="http://www.w3.org/1999/xlink" width="2000" zoomAndPan="magnify" viewBox="0 0 1500 1499.999933" height="2000" preserveAspectRatio="xMidYMid meet" version="1.0"><defs><filter x="0%" y="0%" width="100%" height="100%" id="97f2724914"><feColorMatrix values="0 0 0 0 1 0 0 0 0 1 0 0 0 0 1 0 0 0 1 0" color-interpolation-filters="sRGB"/></filter><g/><mask id="8a770910a0"><g filter="url(#97f2724914)"><rect x="-150" width="1800" fill="#000000" y="-149.999993" height="1799.99992" fill-opacity="0.5"/></g></mask><clipPath id="d8a1400ed0"><path d="M 0 0 L 1500 0 L 1500 1500 L 0 1500 Z M 0 0 " clip-rule="nonzero"/></clipPath><clipPath id="2b4ea87382"><path d="M -46.050781 0 L 1511.585938 0 C 1550.523438 0 1582.085938 31.5625 1582.085938 70.5 L 1582.085938 1429.5 C 1582.085938 1468.4375 1550.523438 1500 1511.585938 1500 L -46.050781 1500 C -84.988281 1500 -116.550781 1468.4375 -116.550781 1429.5 L -116.550781 70.5 C -116.550781 31.5625 -84.988281 0 -46.050781 0 Z M -46.050781 0 " clip-rule="nonzero"/></clipPath><clipPath id="8b7e9af692"><path d="M 0 0 L 1500 0 L 1500 1500 L 0 1500 Z M 0 0 " clip-rule="nonzero"/></clipPath><clipPath id="318687dfec"><path d="M -46.050781 0 L 1511.585938 0 C 1550.523438 0 1582.085938 31.5625 1582.085938 70.5 L 1582.085938 1429.5 C 1582.085938 1468.4375 1550.523438 1500 1511.585938 1500 L -46.050781 1500 C -84.988281 1500 -116.550781 1468.4375 -116.550781 1429.5 L -116.550781 70.5 C -116.550781 31.5625 -84.988281 0 -46.050781 0 Z M -46.050781 0 " clip-rule="nonzero"/></clipPath><clipPath id="242021f6b2"><rect x="0" width="1500" y="0" height="1500"/></clipPath><clipPath id="6642104566"><rect x="0" width="1500" y="0" height="1500"/></clipPath><clipPath id="309f6cf7cf"><rect x="0" width="383" y="0" height="352"/></clipPath><clipPath id="5df46b04d7"><path d="M 586 833 L 828 833 L 828 1068 L 586 1068 Z M 586 833 " clip-rule="nonzero"/></clipPath><clipPath id="9a0b2fa74f"><path d="M 828.691406 1020.089844 L 630.507812 1068.460938 L 584.808594 881.207031 L 782.992188 832.835938 Z M 828.691406 1020.089844 " clip-rule="nonzero"/></clipPath><clipPath id="16d31f2db8"><path d="M 21 25 L 217 25 L 217 217 L 21 217 Z M 21 25 " clip-rule="nonzero"/></clipPath><clipPath id="a66650efc8"><path d="M 242.691406 187.089844 L 44.507812 235.460938 L -1.191406 48.207031 L 196.992188 -0.164062 Z M 242.691406 187.089844 " clip-rule="nonzero"/></clipPath><clipPath id="c6bcb7854f"><path d="M 44.78125 235.394531 L 242.964844 187.023438 L 197.265625 -0.230469 L -0.917969 48.140625 Z M 44.78125 235.394531 " clip-rule="nonzero"/></clipPath><clipPath id="e6c5910a7b"><path d="M 93 91 L 153 91 L 153 152 L 93 152 Z M 93 91 " clip-rule="nonzero"/></clipPath><clipPath id="4d03d2eba6"><path d="M 242.691406 187.089844 L 44.507812 235.460938 L -1.191406 48.207031 L 196.992188 -0.164062 Z M 242.691406 187.089844 " clip-rule="nonzero"/></clipPath><clipPath id="e54c746151"><path d="M 44.78125 235.394531 L 242.964844 187.023438 L 197.265625 -0.230469 L -0.917969 48.140625 Z M 44.78125 235.394531 " clip-rule="nonzero"/></clipPath><clipPath id="6f14de5b30"><rect x="0" width="242" y="0" height="235"/></clipPath><clipPath id="697896d1bc"><rect x="0" width="577" y="0" height="455"/></clipPath><clipPath id="fb32f5dcb1"><path d="M 629.210938 708.304688 L 869.4375 708.304688 L 869.4375 869.71875 L 629.210938 869.71875 Z M 629.210938 708.304688 " clip-rule="nonzero"/></clipPath><clipPath id="46c04ce602"><path d="M 749.230469 708.304688 C 682.945312 708.304688 629.210938 744.4375 629.210938 789.011719 C 629.210938 833.585938 682.945312 869.71875 749.230469 869.71875 C 815.511719 869.71875 869.246094 833.585938 869.246094 789.011719 C 869.246094 744.4375 815.511719 708.304688 749.230469 708.304688 Z M 749.230469 708.304688 " clip-rule="nonzero"/></clipPath><clipPath id="c6820e4116"><path d="M 0.210938 0.304688 L 240.28125 0.304688 L 240.28125 161.71875 L 0.210938 161.71875 Z M 0.210938 0.304688 " clip-rule="nonzero"/></clipPath><clipPath id="ba3301f4c3"><path d="M 120.230469 0.304688 C 53.945312 0.304688 0.210938 36.4375 0.210938 81.011719 C 0.210938 125.585938 53.945312 161.71875 120.230469 161.71875 C 186.511719 161.71875 240.246094 125.585938 240.246094 81.011719 C 240.246094 36.4375 186.511719 0.304688 120.230469 0.304688 Z M 120.230469 0.304688 " clip-rule="nonzero"/></clipPath><clipPath id="6ac6077104"><rect x="0" width="241" y="0" height="162"/></clipPath><clipPath id="f5cf25c094"><rect x="0" width="454" y="0" height="486"/></clipPath><clipPath id="eabfffb37a"><rect x="0" width="577" y="0" height="454"/></clipPath><clipPath id="db7b2becfa"><rect x="0" width="226" y="0" height="414"/></clipPath><clipPath id="ec7cdbbf2f"><rect x="0" width="321" y="0" height="400"/></clipPath></defs><rect x="-150" width="1800" fill="#ffffff" y="-149.999993" height="1799.99992" fill-opacity="1"/><rect x="-150" width="1800" fill="#36492d" y="-149.999993" height="1799.99992" fill-opacity="1"/><g mask="url(#8a770910a0)"><g transform="matrix(1, 0, 0, 1, 0, 0.000000000000112861)"><g clip-path="url(#6642104566)"><g clip-path="url(#d8a1400ed0)"><g clip-path="url(#2b4ea87382)"><g transform="matrix(1, 0, 0, 1, 0, 0.000000000000112861)"><g clip-path="url(#242021f6b2)"><g clip-path="url(#8b7e9af692)"><g clip-path="url(#318687dfec)"><rect x="-546" width="2592" fill="#89c489" y="-545.999976" height="2591.999885" fill-opacity="1"/></g></g></g></g></g></g></g></g></g><g transform="matrix(1, 0, 0, 1, 778, 727)"><g clip-path="url(#309f6cf7cf)"><g fill="#e6aeac" fill-opacity="1"><g transform="translate(0.342408, 290.106484)"><g><path d="M 61.84375 2.359375 C 51.4375 2.359375 41.863281 -0.878906 33.125 -7.359375 C 24.394531 -13.835938 17.425781 -22.523438 12.21875 -33.421875 C 7.019531 -44.316406 4.421875 -56.34375 4.421875 -69.5 C 4.421875 -82.644531 7.019531 -94.566406 12.21875 -105.265625 C 17.425781 -115.972656 24.394531 -124.5625 33.125 -131.03125 C 41.863281 -137.507812 51.4375 -140.75 61.84375 -140.75 C 74.207031 -140.75 85.003906 -136.039062 94.234375 -126.625 L 93.9375 -235.578125 L 135.75 -235.578125 L 135.75 -232.046875 L 121.609375 -232.046875 L 121.609375 -3.828125 L 135.75 -3.828125 L 135.75 0 L 93.9375 0 L 94.234375 -10.59375 C 85.203125 -1.957031 74.40625 2.359375 61.84375 2.359375 Z M 87.453125 -10.015625 C 88.242188 -10.398438 88.929688 -10.890625 89.515625 -11.484375 C 90.109375 -12.078125 90.796875 -12.664062 91.578125 -13.25 C 91.972656 -13.644531 92.414062 -14.085938 92.90625 -14.578125 C 93.394531 -15.066406 93.835938 -15.507812 94.234375 -15.90625 L 94.234375 -121.03125 C 89.910156 -125.9375 85.296875 -129.8125 80.390625 -132.65625 C 75.484375 -135.5 70.476562 -136.921875 65.375 -136.921875 C 62.820312 -136.921875 59.679688 -136.132812 55.953125 -134.5625 C 52.222656 -133 48.492188 -129.710938 44.765625 -124.703125 C 41.035156 -119.703125 37.941406 -112.097656 35.484375 -101.890625 C 33.023438 -91.679688 31.796875 -78.035156 31.796875 -60.953125 C 31.796875 -47.015625 33.316406 -36.019531 36.359375 -27.96875 C 39.410156 -19.925781 43.289062 -14.039062 48 -10.3125 C 52.707031 -6.582031 57.660156 -4.46875 62.859375 -3.96875 C 68.066406 -3.476562 72.878906 -3.921875 77.296875 -5.296875 C 81.710938 -6.671875 85.097656 -8.242188 87.453125 -10.015625 Z M 87.453125 -10.015625 "/></g></g></g><g fill="#e6aeac" fill-opacity="1"><g transform="translate(140.500592, 290.106484)"><g><path d="M 30.921875 2.0625 C 21.890625 2.0625 15.210938 -1.320312 10.890625 -8.09375 C 6.578125 -14.863281 4.421875 -23.0625 4.421875 -32.6875 C 4.421875 -42.5 7.707031 -50.691406 14.28125 -57.265625 C 20.851562 -63.847656 30.078125 -70.128906 41.953125 -76.109375 C 53.835938 -82.097656 67.726562 -89.21875 83.625 -97.46875 L 83.625 -111.890625 C 83.625 -120.535156 81.117188 -127.65625 76.109375 -133.25 C 71.109375 -138.84375 65.566406 -141.640625 59.484375 -141.640625 C 55.753906 -141.640625 51.628906 -140.65625 47.109375 -138.6875 C 42.597656 -136.726562 38.378906 -133.984375 34.453125 -130.453125 C 30.328125 -126.921875 27.625 -123.535156 26.34375 -120.296875 C 25.070312 -117.054688 25.125 -114.941406 26.5 -113.953125 C 28.070312 -115.328125 29.789062 -116.359375 31.65625 -117.046875 C 33.519531 -117.734375 35.429688 -118.175781 37.390625 -118.375 C 43.484375 -118.375 48.492188 -116.117188 52.421875 -111.609375 C 55.753906 -107.878906 57.222656 -103.507812 56.828125 -98.5 C 56.441406 -93.488281 54.285156 -89.316406 50.359375 -85.984375 C 46.628906 -82.648438 42.257812 -81.226562 37.25 -81.71875 C 32.238281 -82.207031 28.066406 -84.316406 24.734375 -88.046875 C 22.378906 -90.398438 20.710938 -92.851562 19.734375 -95.40625 C 17.566406 -102.664062 17.613281 -109.335938 19.875 -115.421875 C 22.132812 -121.515625 26.992188 -127.800781 34.453125 -134.28125 C 38.578125 -137.613281 43.039062 -140.359375 47.84375 -142.515625 C 52.65625 -144.679688 57.125 -145.765625 61.25 -145.765625 C 77.539062 -145.765625 89.804688 -142.179688 98.046875 -135.015625 C 106.296875 -127.847656 110.421875 -115.921875 110.421875 -99.234375 L 110.125 -3.828125 L 124.265625 -3.828125 L 124.265625 0 L 69.796875 0 L 69.796875 -3.828125 L 83.921875 -3.828125 L 83.921875 -39.171875 C 80.191406 -29.941406 75.332031 -22.28125 69.34375 -16.1875 C 63.351562 -10.101562 57.019531 -5.539062 50.34375 -2.5 C 43.675781 0.539062 37.203125 2.0625 30.921875 2.0625 Z M 25.90625 -29.734375 C 25.90625 -21.890625 27.425781 -16.296875 30.46875 -12.953125 C 33.519531 -9.617188 37.398438 -8.050781 42.109375 -8.25 C 46.816406 -8.445312 51.722656 -10.113281 56.828125 -13.25 C 61.929688 -16.394531 66.640625 -20.566406 70.953125 -25.765625 C 75.273438 -30.960938 78.519531 -36.800781 80.6875 -43.28125 C 81.269531 -45.050781 81.804688 -46.769531 82.296875 -48.4375 C 82.796875 -50.101562 83.238281 -51.820312 83.625 -53.59375 L 83.625 -92.75 C 73.03125 -87.84375 64.097656 -83.328125 56.828125 -79.203125 C 49.566406 -75.085938 43.628906 -70.867188 39.015625 -66.546875 C 34.398438 -62.234375 31.0625 -57.179688 29 -51.390625 C 26.9375 -45.597656 25.90625 -38.378906 25.90625 -29.734375 Z M 25.90625 -29.734375 "/></g></g></g><g fill="#e6aeac" fill-opacity="1"><g transform="translate(269.175238, 290.106484)"><g><path d="M 56.25 2.359375 C 52.707031 2.359375 49.660156 2.160156 47.109375 1.765625 C 44.554688 1.367188 41.660156 0.582031 38.421875 -0.59375 C 35.179688 -1.769531 30.71875 -3.4375 25.03125 -5.59375 C 21.300781 -7.164062 17.570312 -7.800781 13.84375 -7.5 C 10.113281 -7.207031 8.25 -5.492188 8.25 -2.359375 L 8.25 -2.0625 L 4.71875 -2.0625 L 4.71875 -46.234375 L 8.25 -46.234375 L 8.25 -42.109375 C 8.25 -40.335938 8.394531 -38.222656 8.6875 -35.765625 C 8.976562 -33.316406 9.519531 -30.816406 10.3125 -28.265625 C 13.644531 -20.410156 19.582031 -13.976562 28.125 -8.96875 C 36.664062 -3.96875 46.039062 -1.46875 56.25 -1.46875 C 65.28125 -1.46875 72.59375 -3.132812 78.1875 -6.46875 C 83.78125 -9.8125 87.457031 -13.984375 89.21875 -18.984375 C 90.988281 -23.992188 90.890625 -29.195312 88.921875 -34.59375 C 86.960938 -40 83.085938 -44.859375 77.296875 -49.171875 C 71.503906 -53.492188 63.800781 -56.539062 54.1875 -58.3125 C 45.15625 -59.875 37.546875 -62.617188 31.359375 -66.546875 C 25.171875 -70.472656 20.359375 -74.890625 16.921875 -79.796875 C 13.492188 -84.703125 11.289062 -89.316406 10.3125 -93.640625 C 9.320312 -97.171875 8.828125 -100.507812 8.828125 -103.65625 L 8.828125 -103.953125 C 8.828125 -111.796875 10.890625 -118.859375 15.015625 -125.140625 C 19.140625 -131.429688 24.632812 -136.488281 31.5 -140.3125 C 38.375 -144.144531 45.9375 -146.0625 54.1875 -146.0625 C 58.894531 -146.0625 63.113281 -145.472656 66.84375 -144.296875 C 73.320312 -142.722656 79.304688 -140.019531 84.796875 -136.1875 C 90.296875 -132.363281 94.863281 -128.046875 98.5 -123.234375 C 102.132812 -118.421875 104.242188 -113.5625 104.828125 -108.65625 C 105.023438 -107.082031 104.972656 -105.609375 104.671875 -104.234375 C 104.378906 -102.867188 104.039062 -101.398438 103.65625 -99.828125 C 102.476562 -94.921875 99.773438 -91.191406 95.546875 -88.640625 C 91.328125 -86.085938 86.664062 -85.398438 81.5625 -86.578125 C 76.65625 -87.753906 72.925781 -90.5 70.375 -94.8125 C 67.820312 -99.132812 67.132812 -103.75 68.3125 -108.65625 C 69.882812 -114.550781 73.320312 -118.773438 78.625 -121.328125 C 80.582031 -122.109375 82.539062 -122.597656 84.5 -122.796875 C 86.46875 -122.992188 88.4375 -122.796875 90.40625 -122.203125 C 90.40625 -122.203125 90.453125 -122.492188 90.546875 -123.078125 C 90.648438 -123.671875 90.304688 -124.554688 89.515625 -125.734375 C 87.753906 -129.660156 84.46875 -132.800781 79.65625 -135.15625 C 74.84375 -137.507812 70.179688 -139.28125 65.671875 -140.46875 C 63.898438 -141.050781 62.082031 -141.441406 60.21875 -141.640625 C 58.351562 -141.835938 56.34375 -141.9375 54.1875 -141.9375 C 47.113281 -141.9375 40.632812 -140.460938 34.75 -137.515625 C 31.601562 -135.941406 29.195312 -133.878906 27.53125 -131.328125 C 25.863281 -128.773438 24.734375 -126.515625 24.140625 -124.546875 C 23.554688 -122.585938 23.265625 -121.609375 23.265625 -121.609375 C 22.472656 -116.898438 22.421875 -111.941406 23.109375 -106.734375 C 23.796875 -101.535156 26.445312 -96.773438 31.0625 -92.453125 C 35.675781 -88.140625 43.382812 -85.003906 54.1875 -83.046875 C 65.375 -81.078125 74.453125 -78.273438 81.421875 -74.640625 C 88.390625 -71.015625 93.6875 -67.335938 97.3125 -63.609375 C 100.945312 -59.878906 103.398438 -56.738281 104.671875 -54.1875 C 105.953125 -51.632812 106.59375 -50.359375 106.59375 -50.359375 C 107.769531 -47.210938 108.359375 -43.675781 108.359375 -39.75 C 108.359375 -27.582031 103.0625 -17.570312 92.46875 -9.71875 C 87.363281 -5.988281 81.617188 -3.039062 75.234375 -0.875 C 68.859375 1.28125 62.53125 2.359375 56.25 2.359375 Z M 56.25 2.359375 "/></g></g></g></g></g><g clip-path="url(#5df46b04d7)"><g clip-path="url(#9a0b2fa74f)"><g transform="matrix(1, 0, 0, 1, 586, 833)"><g clip-path="url(#6f14de5b30)"><g clip-path="url(#16d31f2db8)"><g clip-path="url(#a66650efc8)"><g clip-path="url(#c6bcb7854f)"><path fill="#e6aeac" d="M 25.976562 147.195312 C 34.832031 165.378906 56.121094 173.140625 72.96875 166.5 C 73.753906 176.6875 75.234375 186.933594 80.023438 196.140625 C 84.535156 204.816406 91.765625 211.824219 100.839844 214.558594 C 102.855469 215.148438 104.90625 215.566406 106.996094 215.808594 C 109.082031 216.050781 111.175781 216.113281 113.273438 216 C 115.371094 215.882812 117.445312 215.59375 119.496094 215.125 C 121.542969 214.65625 123.539062 214.019531 125.476562 213.210938 C 138.589844 207.875 146.878906 195.421875 151.214844 181.648438 C 153.113281 184.234375 155.304688 186.546875 157.78125 188.585938 C 160.261719 190.625 162.957031 192.324219 165.863281 193.683594 C 182.925781 201.636719 202.652344 192.472656 209.375 175.109375 C 216.332031 157.09375 207.707031 137.847656 196.253906 123.234375 C 198.445312 122.355469 200.511719 121.242188 202.457031 119.898438 C 204.398438 118.550781 206.164062 117.003906 207.757812 115.257812 C 209.347656 113.511719 210.726562 111.609375 211.886719 109.550781 C 213.050781 107.496094 213.964844 105.332031 214.640625 103.066406 C 217.960938 92.328125 216.148438 79.878906 210.773438 69.792969 C 209.3125 67.15625 207.660156 64.640625 205.820312 62.25 C 203.980469 59.859375 201.972656 57.621094 199.800781 55.53125 C 197.625 53.441406 195.304688 51.523438 192.84375 49.78125 C 190.378906 48.039062 187.800781 46.492188 185.105469 45.136719 C 175.097656 39.894531 163.425781 37.601562 153.050781 41.617188 C 150.046875 42.804688 147.347656 44.476562 144.941406 46.632812 C 142.539062 48.789062 140.585938 51.292969 139.082031 54.152344 C 136.652344 47.578125 132.925781 41.851562 127.898438 36.96875 C 119.816406 29.195312 109.644531 24.972656 98.96875 25.46875 C 96.398438 25.59375 93.863281 25.96875 91.367188 26.601562 C 88.867188 27.234375 86.460938 28.105469 84.136719 29.222656 C 81.816406 30.335938 79.628906 31.667969 77.574219 33.222656 C 75.519531 34.773438 73.636719 36.515625 71.933594 38.445312 C 60.800781 51.292969 59.453125 71.230469 67.332031 86.796875 C 63.292969 86.238281 59.261719 86.265625 55.230469 86.875 C 51.199219 87.484375 47.339844 88.648438 43.644531 90.375 C 41.207031 91.546875 38.917969 92.957031 36.777344 94.613281 C 34.636719 96.269531 32.695312 98.128906 30.949219 100.199219 C 29.203125 102.265625 27.691406 104.492188 26.417969 106.878906 C 25.144531 109.265625 24.132812 111.757812 23.386719 114.359375 C 22.59375 117.058594 22.050781 119.808594 21.757812 122.609375 C 21.46875 125.40625 21.429688 128.210938 21.652344 131.015625 C 21.875 133.820312 22.347656 136.585938 23.074219 139.304688 C 23.800781 142.023438 24.769531 144.652344 25.976562 147.195312 Z M 25.976562 147.195312 " fill-opacity="1" fill-rule="nonzero"/></g></g></g><g clip-path="url(#e6c5910a7b)"><g clip-path="url(#4d03d2eba6)"><g clip-path="url(#e54c746151)"><path fill="#60875b" d="M 152.054688 114.425781 C 151.820312 113.476562 151.542969 112.539062 151.21875 111.617188 C 150.894531 110.695312 150.527344 109.789062 150.113281 108.902344 C 149.703125 108.015625 149.246094 107.152344 148.75 106.308594 C 148.25 105.46875 147.714844 104.652344 147.136719 103.863281 C 146.558594 103.074219 145.941406 102.316406 145.289062 101.589844 C 144.640625 100.859375 143.953125 100.164062 143.230469 99.503906 C 142.511719 98.84375 141.761719 98.21875 140.976562 97.632812 C 140.195312 97.042969 139.386719 96.496094 138.550781 95.988281 C 137.714844 95.480469 136.855469 95.015625 135.976562 94.589844 C 135.09375 94.167969 134.195312 93.789062 133.277344 93.453125 C 132.355469 93.117188 131.425781 92.828125 130.476562 92.585938 C 129.53125 92.34375 128.574219 92.148438 127.605469 91.996094 C 126.640625 91.847656 125.667969 91.746094 124.691406 91.691406 C 123.714844 91.636719 122.738281 91.632812 121.761719 91.675781 C 120.785156 91.714844 119.8125 91.804688 118.84375 91.945312 C 117.875 92.082031 116.917969 92.265625 115.96875 92.5 C 115.015625 92.730469 114.082031 93.007812 113.160156 93.332031 C 112.234375 93.65625 111.332031 94.023438 110.445312 94.4375 C 109.558594 94.851562 108.695312 95.304688 107.851562 95.800781 C 107.011719 96.300781 106.195312 96.835938 105.40625 97.414062 C 104.617188 97.992188 103.859375 98.609375 103.128906 99.261719 C 102.402344 99.914062 101.707031 100.597656 101.046875 101.320312 C 100.382812 102.039062 99.761719 102.792969 99.171875 103.574219 C 98.585938 104.355469 98.039062 105.164062 97.53125 106 C 97.023438 106.835938 96.558594 107.695312 96.132812 108.574219 C 95.710938 109.457031 95.332031 110.355469 94.996094 111.277344 C 94.660156 112.195312 94.371094 113.128906 94.128906 114.074219 C 93.882812 115.023438 93.6875 115.980469 93.539062 116.945312 C 93.390625 117.910156 93.289062 118.882812 93.234375 119.859375 C 93.179688 120.835938 93.175781 121.8125 93.214844 122.789062 C 93.257812 123.765625 93.347656 124.738281 93.484375 125.707031 C 93.625 126.675781 93.808594 127.632812 94.039062 128.585938 C 94.273438 129.535156 94.550781 130.46875 94.875 131.394531 C 95.199219 132.316406 95.566406 133.21875 95.980469 134.105469 C 96.390625 134.992188 96.847656 135.859375 97.34375 136.699219 C 97.84375 137.542969 98.378906 138.355469 98.957031 139.144531 C 99.535156 139.933594 100.148438 140.695312 100.800781 141.421875 C 101.453125 142.152344 102.140625 142.84375 102.863281 143.507812 C 103.582031 144.167969 104.332031 144.792969 105.117188 145.378906 C 105.898438 145.964844 106.707031 146.515625 107.542969 147.023438 C 108.378906 147.53125 109.234375 147.996094 110.117188 148.417969 C 111 148.84375 111.898438 149.222656 112.816406 149.554688 C 113.738281 149.890625 114.667969 150.179688 115.617188 150.421875 C 116.5625 150.667969 117.519531 150.863281 118.488281 151.011719 C 119.453125 151.160156 120.425781 151.261719 121.402344 151.316406 C 122.378906 151.371094 123.355469 151.378906 124.332031 151.335938 C 125.308594 151.292969 126.28125 151.203125 127.25 151.066406 C 128.21875 150.929688 129.175781 150.742188 130.125 150.511719 C 131.074219 150.28125 132.011719 150 132.933594 149.679688 C 133.859375 149.355469 134.761719 148.984375 135.648438 148.574219 C 136.535156 148.160156 137.398438 147.707031 138.242188 147.207031 C 139.082031 146.710938 139.898438 146.171875 140.6875 145.59375 C 141.476562 145.015625 142.234375 144.402344 142.964844 143.75 C 143.691406 143.097656 144.386719 142.410156 145.046875 141.691406 C 145.710938 140.96875 146.332031 140.21875 146.921875 139.4375 C 147.507812 138.65625 148.054688 137.84375 148.5625 137.011719 C 149.070312 136.175781 149.535156 135.316406 149.960938 134.433594 C 150.382812 133.550781 150.761719 132.652344 151.097656 131.734375 C 151.433594 130.816406 151.722656 129.882812 151.964844 128.933594 C 152.207031 127.988281 152.40625 127.03125 152.554688 126.066406 C 152.703125 125.097656 152.804688 124.128906 152.859375 123.152344 C 152.914062 122.175781 152.917969 121.199219 152.878906 120.21875 C 152.835938 119.242188 152.746094 118.269531 152.609375 117.304688 C 152.46875 116.335938 152.285156 115.375 152.054688 114.425781 Z M 152.054688 114.425781 " fill-opacity="1" fill-rule="nonzero"/></g></g></g></g></g></g></g><path fill="#e6aeac" d="M 916.199219 630.417969 C 920.492188 610.652344 939.332031 598.0625 957.273438 600.519531 C 955.621094 590.441406 954.628906 580.132812 957.101562 570.054688 C 959.425781 560.554688 964.789062 552.035156 972.953125 547.226562 C 974.773438 546.171875 976.667969 545.28125 978.640625 544.550781 C 980.609375 543.820312 982.628906 543.261719 984.695312 542.878906 C 986.757812 542.492188 988.84375 542.28125 990.945312 542.25 C 993.046875 542.222656 995.132812 542.367188 997.210938 542.695312 C 1011.214844 544.769531 1022.21875 554.902344 1029.699219 567.253906 C 1030.929688 564.289062 1032.507812 561.523438 1034.433594 558.957031 C 1036.359375 556.386719 1038.570312 554.097656 1041.074219 552.085938 C 1055.765625 540.316406 1077.101562 544.542969 1087.75 559.816406 C 1098.78125 575.667969 1094.960938 596.410156 1087.300781 613.320312 C 1089.640625 613.65625 1091.910156 614.246094 1094.117188 615.09375 C 1096.324219 615.941406 1098.40625 617.023438 1100.367188 618.34375 C 1102.328125 619.664062 1104.117188 621.183594 1105.734375 622.90625 C 1107.351562 624.632812 1108.753906 626.511719 1109.945312 628.554688 C 1115.71875 638.199219 1116.90625 650.722656 1114.078125 661.792969 C 1113.285156 664.703125 1112.277344 667.539062 1111.054688 670.296875 C 1109.835938 673.054688 1108.417969 675.707031 1106.796875 678.253906 C 1105.179688 680.800781 1103.382812 683.210938 1101.402344 685.488281 C 1099.421875 687.765625 1097.285156 689.882812 1094.988281 691.835938 C 1086.507812 699.300781 1075.714844 704.296875 1064.683594 702.855469 C 1061.484375 702.414062 1058.460938 701.433594 1055.617188 699.90625 C 1052.769531 698.382812 1050.277344 696.410156 1048.140625 693.992188 C 1047.339844 700.953125 1045.074219 707.398438 1041.351562 713.332031 C 1035.339844 722.804688 1026.460938 729.320312 1015.972656 731.367188 C 1013.441406 731.855469 1010.890625 732.089844 1008.316406 732.066406 C 1005.738281 732.046875 1003.191406 731.769531 1000.671875 731.238281 C 998.152344 730.707031 995.710938 729.929688 993.347656 728.90625 C 990.984375 727.886719 988.742188 726.640625 986.628906 725.171875 C 972.769531 715.328125 966.730469 696.277344 970.695312 679.285156 C 966.90625 680.785156 962.980469 681.71875 958.921875 682.082031 C 954.859375 682.445312 950.832031 682.226562 946.835938 681.425781 C 944.1875 680.867188 941.628906 680.039062 939.15625 678.9375 C 936.6875 677.835938 934.355469 676.492188 932.171875 674.894531 C 929.984375 673.300781 927.988281 671.496094 926.1875 669.480469 C 924.382812 667.464844 922.8125 665.28125 921.46875 662.929688 C 920.058594 660.496094 918.878906 657.953125 917.929688 655.304688 C 916.984375 652.652344 916.285156 649.9375 915.835938 647.160156 C 915.382812 644.382812 915.1875 641.585938 915.25 638.773438 C 915.3125 635.957031 915.628906 633.171875 916.199219 630.417969 Z M 916.199219 630.417969 " fill-opacity="1" fill-rule="nonzero"/><path fill="#60875b" d="M 1046.449219 632.359375 C 1046.449219 633.335938 1046.402344 634.3125 1046.304688 635.285156 C 1046.210938 636.257812 1046.066406 637.226562 1045.875 638.183594 C 1045.683594 639.144531 1045.449219 640.089844 1045.164062 641.027344 C 1044.878906 641.960938 1044.550781 642.882812 1044.175781 643.785156 C 1043.804688 644.6875 1043.386719 645.570312 1042.925781 646.433594 C 1042.464844 647.296875 1041.960938 648.132812 1041.417969 648.949219 C 1040.875 649.761719 1040.292969 650.546875 1039.671875 651.300781 C 1039.050781 652.058594 1038.394531 652.78125 1037.703125 653.472656 C 1037.011719 654.164062 1036.289062 654.820312 1035.535156 655.441406 C 1034.777344 656.058594 1033.992188 656.640625 1033.179688 657.1875 C 1032.367188 657.730469 1031.527344 658.230469 1030.667969 658.691406 C 1029.804688 659.152344 1028.921875 659.570312 1028.019531 659.945312 C 1027.113281 660.320312 1026.195312 660.648438 1025.257812 660.933594 C 1024.324219 661.214844 1023.375 661.453125 1022.417969 661.644531 C 1021.457031 661.835938 1020.492188 661.976562 1019.519531 662.074219 C 1018.546875 662.167969 1017.570312 662.21875 1016.59375 662.21875 C 1015.613281 662.21875 1014.636719 662.167969 1013.664062 662.074219 C 1012.691406 661.976562 1011.726562 661.835938 1010.765625 661.644531 C 1009.808594 661.453125 1008.859375 661.214844 1007.925781 660.933594 C 1006.988281 660.648438 1006.070312 660.320312 1005.164062 659.945312 C 1004.261719 659.570312 1003.378906 659.152344 1002.515625 658.691406 C 1001.65625 658.230469 1000.816406 657.730469 1000.003906 657.1875 C 999.191406 656.640625 998.40625 656.058594 997.648438 655.441406 C 996.894531 654.820312 996.171875 654.164062 995.480469 653.472656 C 994.789062 652.78125 994.132812 652.058594 993.511719 651.300781 C 992.890625 650.546875 992.308594 649.761719 991.765625 648.949219 C 991.222656 648.132812 990.71875 647.296875 990.257812 646.433594 C 989.796875 645.570312 989.382812 644.6875 989.007812 643.785156 C 988.632812 642.882812 988.304688 641.960938 988.019531 641.027344 C 987.734375 640.089844 987.5 639.144531 987.308594 638.183594 C 987.117188 637.226562 986.972656 636.257812 986.878906 635.285156 C 986.78125 634.3125 986.734375 633.335938 986.734375 632.359375 C 986.734375 631.382812 986.78125 630.40625 986.878906 629.433594 C 986.972656 628.460938 987.117188 627.492188 987.308594 626.535156 C 987.5 625.574219 987.734375 624.628906 988.019531 623.691406 C 988.304688 622.757812 988.632812 621.835938 989.007812 620.933594 C 989.382812 620.03125 989.796875 619.148438 990.257812 618.285156 C 990.71875 617.421875 991.222656 616.585938 991.765625 615.769531 C 992.308594 614.957031 992.890625 614.175781 993.511719 613.417969 C 994.132812 612.660156 994.789062 611.9375 995.480469 611.246094 C 996.171875 610.554688 996.894531 609.898438 997.648438 609.277344 C 998.40625 608.660156 999.191406 608.078125 1000.003906 607.535156 C 1000.816406 606.992188 1001.65625 606.488281 1002.515625 606.027344 C 1003.378906 605.566406 1004.261719 605.148438 1005.164062 604.773438 C 1006.070312 604.398438 1006.988281 604.070312 1007.925781 603.789062 C 1008.859375 603.503906 1009.808594 603.265625 1010.765625 603.074219 C 1011.726562 602.882812 1012.691406 602.742188 1013.664062 602.644531 C 1014.636719 602.550781 1015.613281 602.5 1016.59375 602.5 C 1017.570312 602.5 1018.546875 602.550781 1019.519531 602.644531 C 1020.492188 602.742188 1021.457031 602.882812 1022.417969 603.074219 C 1023.375 603.265625 1024.324219 603.503906 1025.257812 603.789062 C 1026.195312 604.070312 1027.113281 604.398438 1028.019531 604.773438 C 1028.921875 605.148438 1029.804688 605.566406 1030.667969 606.027344 C 1031.527344 606.488281 1032.367188 606.992188 1033.179688 607.535156 C 1033.992188 608.078125 1034.777344 608.660156 1035.535156 609.277344 C 1036.289062 609.898438 1037.011719 610.554688 1037.703125 611.246094 C 1038.394531 611.9375 1039.050781 612.660156 1039.671875 613.417969 C 1040.292969 614.175781 1040.875 614.957031 1041.417969 615.769531 C 1041.960938 616.585938 1042.464844 617.421875 1042.925781 618.285156 C 1043.386719 619.148438 1043.804688 620.03125 1044.175781 620.933594 C 1044.550781 621.835938 1044.878906 622.757812 1045.164062 623.691406 C 1045.449219 624.628906 1045.683594 625.574219 1045.875 626.535156 C 1046.066406 627.492188 1046.210938 628.460938 1046.304688 629.433594 C 1046.402344 630.40625 1046.449219 631.382812 1046.449219 632.359375 Z M 1046.449219 632.359375 " fill-opacity="1" fill-rule="nonzero"/><g transform="matrix(1, 0, 0, 1, 221, 706)"><g clip-path="url(#697896d1bc)"><g fill="#e6aeac" fill-opacity="1"><g transform="translate(0.367275, 310.762739)"><g><path d="M 339.6875 -223.0625 C 339.195312 -223.0625 337.921875 -222.273438 335.859375 -220.703125 C 333.804688 -219.128906 331.691406 -217.253906 329.515625 -215.078125 C 324.179688 -209.503906 319.273438 -203.992188 314.796875 -198.546875 C 310.316406 -193.097656 305.710938 -186.800781 300.984375 -179.65625 C 296.265625 -172.507812 291.238281 -164.210938 285.90625 -154.765625 C 280.582031 -145.316406 274.410156 -133.929688 267.390625 -120.609375 C 259.878906 -106.566406 253.035156 -94.394531 246.859375 -84.09375 C 240.679688 -73.800781 234.566406 -64.78125 228.515625 -57.03125 C 222.460938 -49.28125 216.285156 -42.378906 209.984375 -36.328125 C 203.691406 -30.273438 196.789062 -24.582031 189.28125 -19.25 C 176.925781 -10.53125 164.023438 -3.75 150.578125 1.09375 C 137.140625 5.9375 124.242188 8.359375 111.890625 8.359375 C 101.722656 8.359375 92.457031 6.660156 84.09375 3.265625 C 75.738281 -0.117188 68.59375 -4.835938 62.65625 -10.890625 C 56.726562 -16.953125 52.128906 -24.21875 48.859375 -32.6875 C 45.585938 -41.164062 43.953125 -50.492188 43.953125 -60.671875 C 43.953125 -79.316406 49.035156 -97.175781 59.203125 -114.25 C 69.378906 -131.332031 84.035156 -146.894531 103.171875 -160.9375 C 105.597656 -173.289062 110.382812 -184.914062 117.53125 -195.8125 C 124.675781 -206.71875 133.453125 -216.347656 143.859375 -224.703125 C 154.273438 -233.054688 165.71875 -239.65625 178.1875 -244.5 C 190.664062 -249.34375 203.320312 -251.765625 216.15625 -251.765625 C 227.78125 -251.765625 236.800781 -248.859375 243.21875 -243.046875 C 249.644531 -237.234375 252.859375 -229.238281 252.859375 -219.0625 C 252.859375 -216.644531 252.734375 -214.40625 252.484375 -212.34375 C 252.242188 -210.289062 251.695312 -207.988281 250.84375 -205.4375 C 250 -202.894531 248.789062 -199.988281 247.21875 -196.71875 C 245.644531 -193.457031 243.648438 -189.40625 241.234375 -184.5625 C 238.566406 -179.46875 237.234375 -174.984375 237.234375 -171.109375 C 237.234375 -167.472656 238.625 -164.382812 241.40625 -161.84375 C 244.195312 -159.300781 247.648438 -158.03125 251.765625 -158.03125 C 257.578125 -158.03125 264.054688 -160.816406 271.203125 -166.390625 C 278.347656 -171.960938 284.097656 -178.742188 288.453125 -186.734375 C 288.941406 -187.941406 289.550781 -188.546875 290.28125 -188.546875 C 291.25 -188.546875 291.734375 -188.0625 291.734375 -187.09375 C 291.734375 -186.125 290.703125 -184.066406 288.640625 -180.921875 C 286.578125 -177.773438 284.21875 -174.75 281.5625 -171.84375 C 271.382812 -160.457031 261.570312 -154.765625 252.125 -154.765625 C 245.582031 -154.765625 240.070312 -157.125 235.59375 -161.84375 C 231.113281 -166.570312 228.875 -172.445312 228.875 -179.46875 C 228.875 -183.101562 229.414062 -186.613281 230.5 -190 C 231.59375 -193.394531 233.59375 -198 236.5 -203.8125 C 240.375 -211.320312 242.859375 -216.648438 243.953125 -219.796875 C 245.046875 -222.941406 245.59375 -225.96875 245.59375 -228.875 C 245.59375 -234.925781 242.742188 -239.769531 237.046875 -243.40625 C 231.359375 -247.039062 223.910156 -248.859375 214.703125 -248.859375 C 203.328125 -248.859375 191.765625 -246.492188 180.015625 -241.765625 C 168.265625 -237.046875 157.425781 -230.75 147.5 -222.875 C 137.570312 -215.007812 128.972656 -205.925781 121.703125 -195.625 C 114.441406 -185.332031 109.597656 -174.738281 107.171875 -163.84375 C 130.421875 -178.863281 152.820312 -186.375 174.375 -186.375 C 191.570312 -186.375 204.894531 -181.648438 214.34375 -172.203125 C 223.789062 -162.753906 228.515625 -149.554688 228.515625 -132.609375 C 228.515625 -120.492188 225.609375 -108.378906 219.796875 -96.265625 C 213.984375 -84.160156 206.351562 -73.320312 196.90625 -63.75 C 187.457031 -54.1875 176.921875 -46.378906 165.296875 -40.328125 C 153.671875 -34.273438 142.046875 -31.25 130.421875 -31.25 C 118.796875 -31.25 109.347656 -34.878906 102.078125 -42.140625 C 94.816406 -49.410156 91.1875 -58.859375 91.1875 -70.484375 C 91.1875 -78.953125 92.757812 -87.125 95.90625 -95 C 99.0625 -102.875 104.148438 -111.289062 111.171875 -120.25 C 105.117188 -128.488281 102.09375 -137.570312 102.09375 -147.5 L 102.09375 -151.5 C 87.3125 -138.175781 75.617188 -122.972656 67.015625 -105.890625 C 58.421875 -88.816406 54.125 -72.171875 54.125 -55.953125 C 54.125 -37.546875 59.453125 -22.769531 70.109375 -11.625 C 80.765625 -0.476562 94.9375 5.09375 112.625 5.09375 C 143.863281 5.09375 174.742188 -11.253906 205.265625 -43.953125 C 209.140625 -48.316406 212.710938 -52.375 215.984375 -56.125 C 219.253906 -59.882812 222.460938 -63.878906 225.609375 -68.109375 C 228.753906 -72.347656 232.144531 -77.070312 235.78125 -82.28125 C 239.414062 -87.488281 243.472656 -93.785156 247.953125 -101.171875 C 252.429688 -108.566406 257.695312 -117.164062 263.75 -126.96875 C 269.8125 -136.78125 276.835938 -148.46875 284.828125 -162.03125 C 289.910156 -170.75 295.539062 -179.222656 301.71875 -187.453125 C 307.894531 -195.691406 313.945312 -203.019531 319.875 -209.4375 C 325.8125 -215.851562 331.257812 -221 336.21875 -224.875 C 341.1875 -228.75 345.125 -230.6875 348.03125 -230.6875 C 348.757812 -230.6875 349.125 -230.328125 349.125 -229.609375 C 349.125 -229.117188 349.0625 -228.753906 348.9375 -228.515625 C 348.820312 -228.273438 348.160156 -227.546875 346.953125 -226.328125 C 344.046875 -222.703125 341.316406 -218.769531 338.765625 -214.53125 C 336.222656 -210.289062 333.800781 -205.566406 331.5 -200.359375 C 329.207031 -195.148438 327.03125 -189.210938 324.96875 -182.546875 C 322.90625 -175.890625 320.785156 -168.320312 318.609375 -159.84375 C 311.585938 -134.90625 305.109375 -113.773438 299.171875 -96.453125 C 293.242188 -79.140625 287.191406 -64.488281 281.015625 -52.5 C 274.835938 -40.507812 268.175781 -30.640625 261.03125 -22.890625 C 253.882812 -15.140625 245.707031 -8.476562 236.5 -2.90625 C 236.019531 -2.90625 235.78125 -2.664062 235.78125 -2.1875 C 235.78125 -2.1875 236.019531 -2.0625 236.5 -1.8125 C 237.46875 -1.8125 240.128906 -3.019531 244.484375 -5.4375 C 248.847656 -7.863281 252.847656 -10.410156 256.484375 -13.078125 C 260.597656 -15.984375 264.53125 -18.945312 268.28125 -21.96875 C 272.039062 -25 275.796875 -28.390625 279.546875 -32.140625 C 283.304688 -35.898438 287.304688 -40.257812 291.546875 -45.21875 C 295.785156 -50.1875 300.6875 -56.242188 306.25 -63.390625 C 311.820312 -70.535156 318.179688 -78.890625 325.328125 -88.453125 C 332.472656 -98.023438 340.769531 -109.351562 350.21875 -122.4375 C 360.144531 -136.238281 368.863281 -147.921875 376.375 -157.484375 C 383.882812 -167.054688 390.90625 -175.351562 397.4375 -182.375 C 403.976562 -189.394531 410.394531 -195.507812 416.6875 -200.71875 C 422.988281 -205.925781 429.773438 -211.070312 437.046875 -216.15625 C 448.671875 -223.90625 459.75 -229.597656 470.28125 -233.234375 C 480.820312 -236.867188 491.90625 -238.6875 503.53125 -238.6875 C 513.695312 -238.6875 523.019531 -237.171875 531.5 -234.140625 C 539.976562 -231.117188 547.304688 -226.878906 553.484375 -221.421875 C 559.660156 -215.972656 564.441406 -209.554688 567.828125 -202.171875 C 571.222656 -194.785156 572.921875 -186.613281 572.921875 -177.65625 C 572.921875 -172.5625 572.4375 -167.894531 571.46875 -163.65625 C 570.5 -159.425781 569.410156 -157.3125 568.203125 -157.3125 C 567.472656 -157.3125 567.109375 -157.671875 567.109375 -158.390625 L 567.46875 -159.84375 C 568.195312 -161.539062 568.800781 -164.023438 569.28125 -167.296875 C 569.769531 -170.566406 570.015625 -173.65625 570.015625 -176.5625 C 570.015625 -184.550781 568.316406 -191.9375 564.921875 -198.71875 C 561.535156 -205.5 556.9375 -211.429688 551.125 -216.515625 C 545.3125 -221.609375 538.46875 -225.609375 530.59375 -228.515625 C 522.71875 -231.421875 514.300781 -232.875 505.34375 -232.875 C 476.28125 -232.875 446.367188 -218.582031 415.609375 -190 C 409.554688 -184.4375 404.289062 -179.351562 399.8125 -174.75 C 395.332031 -170.144531 390.363281 -164.570312 384.90625 -158.03125 C 379.457031 -151.488281 372.914062 -143.253906 365.28125 -133.328125 C 357.65625 -123.398438 347.546875 -110.082031 334.953125 -93.375 C 324.785156 -79.800781 315.582031 -68.109375 307.34375 -58.296875 C 299.113281 -48.492188 291.546875 -40.082031 284.640625 -33.0625 C 277.742188 -26.039062 271.144531 -20.164062 264.84375 -15.4375 C 258.539062 -10.71875 252.242188 -6.785156 245.953125 -3.640625 C 242.316406 -1.703125 238.378906 0.113281 234.140625 1.8125 C 229.898438 3.507812 227.175781 4.359375 225.96875 4.359375 C 225.238281 4.359375 224.875 3.992188 224.875 3.265625 C 224.875 3.023438 224.992188 2.785156 225.234375 2.546875 C 225.484375 2.304688 226.578125 1.578125 228.515625 0.359375 C 232.390625 -2.546875 235.898438 -5.507812 239.046875 -8.53125 C 242.191406 -11.5625 245.15625 -15.070312 247.9375 -19.0625 C 250.726562 -23.0625 253.515625 -27.96875 256.296875 -33.78125 C 259.085938 -39.59375 262.117188 -46.796875 265.390625 -55.390625 C 268.660156 -63.992188 272.351562 -74.289062 276.46875 -86.28125 C 280.582031 -98.269531 285.425781 -112.617188 291 -129.328125 C 294.875 -140.953125 298.6875 -151.425781 302.4375 -160.75 C 306.195312 -170.082031 309.953125 -178.378906 313.703125 -185.640625 C 317.460938 -192.910156 321.398438 -199.390625 325.515625 -205.078125 C 329.628906 -210.773438 334.109375 -216.046875 338.953125 -220.890625 C 339.679688 -221.609375 340.046875 -222.210938 340.046875 -222.703125 Z M 105.71875 -154.765625 C 105.476562 -153.066406 105.359375 -151.671875 105.359375 -150.578125 C 105.359375 -149.492188 105.359375 -148.585938 105.359375 -147.859375 C 105.359375 -139.140625 108.144531 -130.90625 113.71875 -123.15625 C 117.101562 -126.789062 120.734375 -130.242188 124.609375 -133.515625 C 128.484375 -136.785156 132.359375 -139.691406 136.234375 -142.234375 C 140.109375 -144.773438 143.679688 -146.769531 146.953125 -148.21875 C 150.222656 -149.675781 152.828125 -150.40625 154.765625 -150.40625 C 155.734375 -150.40625 156.21875 -150.039062 156.21875 -149.3125 C 156.21875 -148.832031 155.972656 -148.410156 155.484375 -148.046875 C 155.003906 -147.679688 153.3125 -146.894531 150.40625 -145.6875 C 143.382812 -142.78125 137.144531 -139.328125 131.6875 -135.328125 C 126.238281 -131.328125 120.851562 -126.300781 115.53125 -120.25 C 119.644531 -115.40625 124.0625 -111.953125 128.78125 -109.890625 C 133.507812 -107.835938 139.265625 -106.8125 146.046875 -106.8125 C 156.941406 -106.8125 167.78125 -109.835938 178.5625 -115.890625 C 189.34375 -121.941406 198.125 -129.8125 204.90625 -139.5 C 205.382812 -139.988281 205.742188 -140.234375 205.984375 -140.234375 C 206.953125 -140.234375 207.4375 -139.75 207.4375 -138.78125 C 207.4375 -137.570312 206.40625 -135.691406 204.34375 -133.140625 C 202.289062 -130.597656 199.570312 -127.875 196.1875 -124.96875 C 188.914062 -118.1875 180.859375 -112.976562 172.015625 -109.34375 C 163.179688 -105.71875 154.40625 -103.90625 145.6875 -103.90625 C 138.65625 -103.90625 132.71875 -104.929688 127.875 -106.984375 C 123.03125 -109.046875 118.1875 -112.617188 113.34375 -117.703125 C 101 -101.722656 94.828125 -86.34375 94.828125 -71.5625 C 94.828125 -60.664062 98.09375 -51.765625 104.625 -44.859375 C 111.164062 -37.960938 119.644531 -34.515625 130.0625 -34.515625 C 140.476562 -34.515625 151.191406 -37.722656 162.203125 -44.140625 C 173.222656 -50.554688 183.210938 -58.847656 192.171875 -69.015625 C 201.140625 -79.191406 208.46875 -90.515625 214.15625 -102.984375 C 219.851562 -115.460938 222.703125 -127.757812 222.703125 -139.875 C 222.703125 -152.945312 218.34375 -163.476562 209.625 -171.46875 C 200.90625 -179.46875 189.519531 -183.46875 175.46875 -183.46875 C 151.738281 -183.46875 128.488281 -173.898438 105.71875 -154.765625 Z M 295.359375 1.8125 C 301.660156 -0.363281 307.410156 -3.144531 312.609375 -6.53125 C 317.816406 -9.925781 322.78125 -14.347656 327.5 -19.796875 C 332.226562 -25.242188 337.070312 -31.90625 342.03125 -39.78125 C 347 -47.65625 352.515625 -57.40625 358.578125 -69.03125 C 371.171875 -92.519531 382.128906 -112.253906 391.453125 -128.234375 C 400.773438 -144.222656 409.492188 -157.664062 417.609375 -168.5625 C 425.722656 -179.46875 433.710938 -188.613281 441.578125 -196 C 449.453125 -203.382812 458.234375 -210.226562 467.921875 -216.53125 C 472.046875 -219.1875 475.921875 -221.484375 479.546875 -223.421875 C 483.179688 -225.359375 485.601562 -226.328125 486.8125 -226.328125 C 487.539062 -226.328125 487.90625 -225.96875 487.90625 -225.25 C 487.90625 -224.757812 487.601562 -224.332031 487 -223.96875 C 486.394531 -223.601562 485.125 -222.9375 483.1875 -221.96875 C 476.164062 -218.09375 469.6875 -213.671875 463.75 -208.703125 C 457.8125 -203.742188 452.054688 -197.570312 446.484375 -190.1875 C 440.921875 -182.800781 435.234375 -173.957031 429.421875 -163.65625 C 423.609375 -153.363281 417.3125 -140.953125 410.53125 -126.421875 C 400.59375 -105.597656 391.445312 -87.921875 383.09375 -73.390625 C 374.738281 -58.859375 366.320312 -46.625 357.84375 -36.6875 C 349.363281 -26.757812 340.519531 -18.769531 331.3125 -12.71875 C 322.113281 -6.664062 311.828125 -1.578125 300.453125 2.546875 C 303.835938 3.023438 306.617188 3.382812 308.796875 3.625 C 310.984375 3.875 312.921875 4.117188 314.609375 4.359375 C 316.304688 4.597656 317.941406 4.71875 319.515625 4.71875 C 321.085938 4.71875 322.84375 4.71875 324.78125 4.71875 C 333.5 4.71875 341.488281 3.75 348.75 1.8125 C 356.019531 -0.125 363.109375 -3.570312 370.015625 -8.53125 C 376.921875 -13.5 383.945312 -20.039062 391.09375 -28.15625 C 398.238281 -36.269531 406.171875 -46.503906 414.890625 -58.859375 C 416.335938 -60.546875 417.304688 -61.390625 417.796875 -61.390625 C 418.273438 -61.390625 418.515625 -61.03125 418.515625 -60.3125 C 418.515625 -60.0625 417.785156 -58.96875 416.328125 -57.03125 C 414.878906 -55.09375 413.125 -52.734375 411.0625 -49.953125 C 409.007812 -47.171875 406.832031 -44.265625 404.53125 -41.234375 C 402.226562 -38.203125 400.109375 -35.476562 398.171875 -33.0625 C 391.878906 -25.3125 386.003906 -18.832031 380.546875 -13.625 C 375.097656 -8.414062 369.523438 -4.296875 363.828125 -1.265625 C 358.140625 1.753906 352.207031 3.929688 346.03125 5.265625 C 339.863281 6.597656 333.023438 7.265625 325.515625 7.265625 C 320.179688 7.265625 314.789062 7.019531 309.34375 6.53125 C 303.894531 6.050781 298.992188 5.207031 294.640625 4 C 287.128906 6.664062 279.015625 8 270.296875 8 C 263.992188 8 260.84375 6.785156 260.84375 4.359375 C 260.84375 1.453125 265.203125 0 273.921875 0 C 276.585938 0 278.945312 0.117188 281 0.359375 C 283.0625 0.609375 287.125 1.09375 293.1875 1.8125 Z M 295.359375 1.8125 "/></g></g></g></g></g><g clip-path="url(#fb32f5dcb1)"><g clip-path="url(#46c04ce602)"><g transform="matrix(1, 0, 0, 1, 629, 708)"><g clip-path="url(#6ac6077104)"><g clip-path="url(#c6820e4116)"><g clip-path="url(#ba3301f4c3)"><path fill="#60875b" d="M 0.210938 0.304688 L 240.4375 0.304688 L 240.4375 161.71875 L 0.210938 161.71875 Z M 0.210938 0.304688 " fill-opacity="1" fill-rule="nonzero"/></g></g></g></g></g></g><g transform="matrix(1, 0, 0, 1, 489, 374)"><g clip-path="url(#f5cf25c094)"><g fill="#e6aeac" fill-opacity="1"><g transform="translate(2.584131, 341.801933)"><g><path d="M 36.234375 2.421875 C 25.648438 2.421875 17.828125 -1.546875 12.765625 -9.484375 C 7.703125 -17.421875 5.171875 -27.03125 5.171875 -38.3125 C 5.171875 -49.8125 9.023438 -59.414062 16.734375 -67.125 C 24.441406 -74.832031 35.253906 -82.191406 49.171875 -89.203125 C 63.097656 -96.222656 79.378906 -104.566406 98.015625 -114.234375 L 98.015625 -131.140625 C 98.015625 -141.265625 95.082031 -149.601562 89.21875 -156.15625 C 83.351562 -162.71875 76.851562 -166 69.71875 -166 C 65.34375 -166 60.507812 -164.847656 55.21875 -162.546875 C 49.925781 -160.253906 44.976562 -157.035156 40.375 -152.890625 C 35.539062 -148.742188 32.375 -144.769531 30.875 -140.96875 C 29.382812 -137.175781 29.445312 -134.707031 31.0625 -133.5625 C 32.90625 -135.175781 34.914062 -136.382812 37.09375 -137.1875 C 39.28125 -137.988281 41.523438 -138.503906 43.828125 -138.734375 C 50.960938 -138.734375 56.832031 -136.085938 61.4375 -130.796875 C 65.34375 -126.429688 67.066406 -121.3125 66.609375 -115.4375 C 66.148438 -109.570312 63.617188 -104.6875 59.015625 -100.78125 C 54.640625 -96.863281 49.519531 -95.191406 43.65625 -95.765625 C 37.789062 -96.347656 32.898438 -98.820312 28.984375 -103.1875 C 26.222656 -105.945312 24.269531 -108.828125 23.125 -111.828125 C 20.59375 -120.335938 20.648438 -128.15625 23.296875 -135.28125 C 25.941406 -142.414062 31.632812 -149.78125 40.375 -157.375 C 45.207031 -161.289062 50.441406 -164.515625 56.078125 -167.046875 C 61.710938 -169.578125 66.945312 -170.84375 71.78125 -170.84375 C 90.882812 -170.84375 105.265625 -166.640625 114.921875 -158.234375 C 124.585938 -149.835938 129.421875 -135.863281 129.421875 -116.3125 L 129.078125 -4.484375 L 145.640625 -4.484375 L 145.640625 0 L 81.796875 0 L 81.796875 -4.484375 L 98.359375 -4.484375 L 98.359375 -45.90625 C 93.984375 -35.09375 88.285156 -26.117188 81.265625 -18.984375 C 74.253906 -11.847656 66.835938 -6.492188 59.015625 -2.921875 C 51.191406 0.640625 43.597656 2.421875 36.234375 2.421875 Z M 30.375 -34.859375 C 30.375 -25.648438 32.15625 -19.085938 35.71875 -15.171875 C 39.28125 -11.265625 43.820312 -9.425781 49.34375 -9.65625 C 54.875 -9.894531 60.628906 -11.851562 66.609375 -15.53125 C 72.585938 -19.207031 78.109375 -24.09375 83.171875 -30.1875 C 88.234375 -36.289062 92.03125 -43.140625 94.5625 -50.734375 C 95.25 -52.804688 95.878906 -54.816406 96.453125 -56.765625 C 97.035156 -58.722656 97.554688 -60.738281 98.015625 -62.8125 L 98.015625 -108.71875 C 85.585938 -102.96875 75.117188 -97.675781 66.609375 -92.84375 C 58.097656 -88.007812 51.140625 -83.0625 45.734375 -78 C 40.328125 -72.9375 36.414062 -67.007812 34 -60.21875 C 31.582031 -53.4375 30.375 -44.984375 30.375 -34.859375 Z M 30.375 -34.859375 "/></g></g></g><g fill="#e6aeac" fill-opacity="1"><g transform="translate(119.5717, 341.801933)"><g><path d="M 72.46875 142.53125 C 67.875 142.53125 63.21875 142.128906 58.5 141.328125 C 53.78125 140.523438 49.234375 139.429688 44.859375 138.046875 C 23.691406 131.148438 9.773438 119.1875 3.109375 102.15625 C -0.578125 92.488281 -1.15625 82.25 1.375 71.4375 C 3.90625 60.625 9.195312 50.382812 17.25 40.71875 C 11.039062 35.195312 7.59375 27.835938 6.90625 18.640625 C 6.90625 15.878906 7.019531 12.484375 7.25 8.453125 C 7.476562 4.429688 8.222656 0.234375 9.484375 -4.140625 C 10.753906 -8.515625 13 -12.195312 16.21875 -15.1875 L 25.546875 -24.84375 C 12.660156 -41.644531 6.21875 -61.429688 6.21875 -84.203125 C 6.21875 -95.710938 8 -106.757812 11.5625 -117.34375 C 15.125 -127.925781 20.359375 -137.359375 27.265625 -145.640625 C 34.171875 -153.921875 41.992188 -160.304688 50.734375 -164.796875 C 59.472656 -169.285156 68.789062 -171.53125 78.6875 -171.53125 L 79.71875 -171.53125 C 89.382812 -171.53125 98.816406 -169.398438 108.015625 -165.140625 C 117.222656 -160.878906 124.816406 -154.378906 130.796875 -145.640625 L 132.53125 -143.234375 C 136.894531 -152.203125 142.988281 -159.90625 150.8125 -166.34375 C 158.632812 -172.789062 166 -176.585938 172.90625 -177.734375 C 174.75 -178.191406 176.585938 -178.304688 178.421875 -178.078125 C 180.265625 -177.847656 181.992188 -177.503906 183.609375 -177.046875 C 189.585938 -175.898438 194.070312 -172.910156 197.0625 -168.078125 C 200.050781 -163.242188 200.972656 -157.835938 199.828125 -151.859375 C 198.679688 -146.109375 195.691406 -141.617188 190.859375 -138.390625 C 186.023438 -135.171875 180.617188 -134.132812 174.640625 -135.28125 C 167.960938 -136.664062 162.898438 -140.578125 159.453125 -147.015625 C 157.378906 -151.390625 156.800781 -155.992188 157.71875 -160.828125 C 157.71875 -160.828125 157.375 -160.828125 156.6875 -160.828125 C 156 -160.828125 154.960938 -160.367188 153.578125 -159.453125 C 148.742188 -156.921875 144.375 -153.125 140.46875 -148.0625 C 139.539062 -146.445312 138.675781 -144.945312 137.875 -143.5625 C 137.070312 -142.1875 136.441406 -140.578125 135.984375 -138.734375 C 146.566406 -122.859375 151.859375 -104.679688 151.859375 -84.203125 C 151.859375 -60.503906 144.835938 -40.03125 130.796875 -22.78125 C 116.765625 -5.519531 99.738281 3.109375 79.71875 3.109375 L 78.34375 3.109375 C 68.675781 3.109375 59.644531 0.691406 51.25 -4.140625 C 42.851562 -8.972656 34.859375 -15.1875 27.265625 -22.78125 L 26.921875 -23.125 C 22.773438 -19.4375 20.816406 -15.0625 21.046875 -10 C 21.273438 -4.945312 23.054688 -0.00390625 26.390625 4.828125 C 29.734375 9.660156 34.050781 13.6875 39.34375 16.90625 C 44.632812 20.132812 50.269531 21.75 56.25 21.75 C 59.007812 21.75 61.828125 21.457031 64.703125 20.875 C 67.585938 20.300781 70.175781 19.785156 72.46875 19.328125 C 75.695312 18.640625 78.976562 18.0625 82.3125 17.59375 C 85.644531 17.132812 89.15625 16.90625 92.84375 16.90625 C 99.050781 16.90625 106.351562 17.648438 114.75 19.140625 C 123.144531 20.640625 129.757812 22.65625 134.59375 25.1875 C 149.09375 32.78125 157.03125 45.320312 158.40625 62.8125 C 159.5625 75.925781 158.296875 87.140625 154.609375 96.453125 C 150.929688 105.773438 145.695312 113.425781 138.90625 119.40625 C 132.125 125.394531 124.53125 130.113281 116.125 133.5625 C 107.726562 137.007812 99.390625 139.425781 91.109375 140.8125 C 88.117188 141.269531 85.070312 141.671875 81.96875 142.015625 C 78.863281 142.359375 75.695312 142.53125 72.46875 142.53125 Z M 78.6875 0 L 79.71875 0 C 87.3125 0 94.210938 -3.851562 100.421875 -11.5625 C 106.640625 -19.269531 111.585938 -29.507812 115.265625 -42.28125 C 118.953125 -55.050781 120.796875 -69.023438 120.796875 -84.203125 C 120.796875 -99.617188 118.953125 -113.65625 115.265625 -126.3125 C 111.585938 -138.96875 106.640625 -149.148438 100.421875 -156.859375 C 94.210938 -164.566406 87.3125 -168.421875 79.71875 -168.421875 L 78.6875 -168.421875 C 71.09375 -168.421875 64.1875 -164.566406 57.96875 -156.859375 C 51.757812 -149.148438 46.816406 -138.96875 43.140625 -126.3125 C 39.460938 -113.65625 37.625 -99.617188 37.625 -84.203125 C 37.625 -69.023438 39.460938 -55.050781 43.140625 -42.28125 C 46.816406 -29.507812 51.757812 -19.269531 57.96875 -11.5625 C 64.1875 -3.851562 71.09375 0 78.6875 0 Z M 65.921875 129.765625 C 74.890625 133.210938 84.03125 134.535156 93.34375 133.734375 C 102.664062 132.929688 111.296875 130.570312 119.234375 126.65625 C 127.171875 122.75 133.785156 117.800781 139.078125 111.8125 C 144.367188 105.832031 147.363281 99.273438 148.0625 92.140625 C 148.519531 83.628906 146.160156 75.519531 140.984375 67.8125 C 135.804688 60.101562 128.5 54.066406 119.0625 49.703125 C 109.632812 45.097656 99.914062 42.910156 89.90625 43.140625 C 79.894531 43.367188 69.941406 44.40625 60.046875 46.25 C 55.679688 47.164062 51.484375 47.566406 47.453125 47.453125 C 43.429688 47.335938 39.691406 47.050781 36.234375 46.59375 C 33.242188 46.132812 30.425781 45.328125 27.78125 44.171875 C 25.132812 43.023438 22.660156 41.644531 20.359375 40.03125 C 18.285156 43.25 17.019531 47.445312 16.5625 52.625 C 16.101562 57.800781 16.101562 63.382812 16.5625 69.375 C 17.71875 77.65625 20.648438 85.878906 25.359375 94.046875 C 30.078125 102.210938 36.003906 109.398438 43.140625 115.609375 C 50.273438 121.828125 57.867188 126.546875 65.921875 129.765625 Z M 65.921875 129.765625 "/></g></g></g><g fill="#e6aeac" fill-opacity="1"><g transform="translate(275.556145, 341.801933)"><g><path d="M 5.171875 0 L 5.171875 -4.484375 L 21.390625 -4.484375 L 21.390625 -163.25 L 5.171875 -163.25 L 5.171875 -167.390625 L 53.15625 -167.390625 L 53.15625 -132.875 C 56.144531 -139.082031 60.457031 -145.175781 66.09375 -151.15625 C 71.726562 -157.144531 77.878906 -162.035156 84.546875 -165.828125 C 91.222656 -169.628906 97.664062 -171.53125 103.875 -171.53125 C 122.976562 -171.53125 136.613281 -167.328125 144.78125 -158.921875 C 152.945312 -150.523438 157.03125 -136.550781 157.03125 -117 L 156.6875 -4.484375 L 173.25 -4.484375 L 173.25 0 L 109.40625 0 L 109.40625 -4.484375 L 125.96875 -4.484375 L 125.625 -131.84375 C 125.625 -141.957031 123.4375 -150.175781 119.0625 -156.5 C 114.695312 -162.832031 108.945312 -166 101.8125 -166 C 95.363281 -166 88.570312 -163.410156 81.4375 -158.234375 C 74.3125 -153.054688 68.101562 -146.671875 62.8125 -139.078125 C 57.519531 -131.492188 54.300781 -123.789062 53.15625 -115.96875 L 52.796875 -4.484375 L 69.03125 -4.484375 L 69.03125 0 Z M 5.171875 0 "/></g></g></g></g></g><g transform="matrix(1, 0, 0, 1, 92, 408)"><g clip-path="url(#eabfffb37a)"><g fill="#e6aeac" fill-opacity="1"><g transform="translate(0.493534, 310.604894)"><g><path d="M 339.6875 -223.0625 C 339.195312 -223.0625 337.921875 -222.273438 335.859375 -220.703125 C 333.804688 -219.128906 331.691406 -217.253906 329.515625 -215.078125 C 324.179688 -209.503906 319.273438 -203.992188 314.796875 -198.546875 C 310.316406 -193.097656 305.710938 -186.800781 300.984375 -179.65625 C 296.265625 -172.507812 291.238281 -164.210938 285.90625 -154.765625 C 280.582031 -145.316406 274.410156 -133.929688 267.390625 -120.609375 C 259.878906 -106.566406 253.035156 -94.394531 246.859375 -84.09375 C 240.679688 -73.800781 234.566406 -64.78125 228.515625 -57.03125 C 222.460938 -49.28125 216.285156 -42.378906 209.984375 -36.328125 C 203.691406 -30.273438 196.789062 -24.582031 189.28125 -19.25 C 176.925781 -10.53125 164.023438 -3.75 150.578125 1.09375 C 137.140625 5.9375 124.242188 8.359375 111.890625 8.359375 C 101.722656 8.359375 92.457031 6.660156 84.09375 3.265625 C 75.738281 -0.117188 68.59375 -4.835938 62.65625 -10.890625 C 56.726562 -16.953125 52.128906 -24.21875 48.859375 -32.6875 C 45.585938 -41.164062 43.953125 -50.492188 43.953125 -60.671875 C 43.953125 -79.316406 49.035156 -97.175781 59.203125 -114.25 C 69.378906 -131.332031 84.035156 -146.894531 103.171875 -160.9375 C 105.597656 -173.289062 110.382812 -184.914062 117.53125 -195.8125 C 124.675781 -206.71875 133.453125 -216.347656 143.859375 -224.703125 C 154.273438 -233.054688 165.71875 -239.65625 178.1875 -244.5 C 190.664062 -249.34375 203.320312 -251.765625 216.15625 -251.765625 C 227.78125 -251.765625 236.800781 -248.859375 243.21875 -243.046875 C 249.644531 -237.234375 252.859375 -229.238281 252.859375 -219.0625 C 252.859375 -216.644531 252.734375 -214.40625 252.484375 -212.34375 C 252.242188 -210.289062 251.695312 -207.988281 250.84375 -205.4375 C 250 -202.894531 248.789062 -199.988281 247.21875 -196.71875 C 245.644531 -193.457031 243.648438 -189.40625 241.234375 -184.5625 C 238.566406 -179.46875 237.234375 -174.984375 237.234375 -171.109375 C 237.234375 -167.472656 238.625 -164.382812 241.40625 -161.84375 C 244.195312 -159.300781 247.648438 -158.03125 251.765625 -158.03125 C 257.578125 -158.03125 264.054688 -160.816406 271.203125 -166.390625 C 278.347656 -171.960938 284.097656 -178.742188 288.453125 -186.734375 C 288.941406 -187.941406 289.550781 -188.546875 290.28125 -188.546875 C 291.25 -188.546875 291.734375 -188.0625 291.734375 -187.09375 C 291.734375 -186.125 290.703125 -184.066406 288.640625 -180.921875 C 286.578125 -177.773438 284.21875 -174.75 281.5625 -171.84375 C 271.382812 -160.457031 261.570312 -154.765625 252.125 -154.765625 C 245.582031 -154.765625 240.070312 -157.125 235.59375 -161.84375 C 231.113281 -166.570312 228.875 -172.445312 228.875 -179.46875 C 228.875 -183.101562 229.414062 -186.613281 230.5 -190 C 231.59375 -193.394531 233.59375 -198 236.5 -203.8125 C 240.375 -211.320312 242.859375 -216.648438 243.953125 -219.796875 C 245.046875 -222.941406 245.59375 -225.96875 245.59375 -228.875 C 245.59375 -234.925781 242.742188 -239.769531 237.046875 -243.40625 C 231.359375 -247.039062 223.910156 -248.859375 214.703125 -248.859375 C 203.328125 -248.859375 191.765625 -246.492188 180.015625 -241.765625 C 168.265625 -237.046875 157.425781 -230.75 147.5 -222.875 C 137.570312 -215.007812 128.972656 -205.925781 121.703125 -195.625 C 114.441406 -185.332031 109.597656 -174.738281 107.171875 -163.84375 C 130.421875 -178.863281 152.820312 -186.375 174.375 -186.375 C 191.570312 -186.375 204.894531 -181.648438 214.34375 -172.203125 C 223.789062 -162.753906 228.515625 -149.554688 228.515625 -132.609375 C 228.515625 -120.492188 225.609375 -108.378906 219.796875 -96.265625 C 213.984375 -84.160156 206.351562 -73.320312 196.90625 -63.75 C 187.457031 -54.1875 176.921875 -46.378906 165.296875 -40.328125 C 153.671875 -34.273438 142.046875 -31.25 130.421875 -31.25 C 118.796875 -31.25 109.347656 -34.878906 102.078125 -42.140625 C 94.816406 -49.410156 91.1875 -58.859375 91.1875 -70.484375 C 91.1875 -78.953125 92.757812 -87.125 95.90625 -95 C 99.0625 -102.875 104.148438 -111.289062 111.171875 -120.25 C 105.117188 -128.488281 102.09375 -137.570312 102.09375 -147.5 L 102.09375 -151.5 C 87.3125 -138.175781 75.617188 -122.972656 67.015625 -105.890625 C 58.421875 -88.816406 54.125 -72.171875 54.125 -55.953125 C 54.125 -37.546875 59.453125 -22.769531 70.109375 -11.625 C 80.765625 -0.476562 94.9375 5.09375 112.625 5.09375 C 143.863281 5.09375 174.742188 -11.253906 205.265625 -43.953125 C 209.140625 -48.316406 212.710938 -52.375 215.984375 -56.125 C 219.253906 -59.882812 222.460938 -63.878906 225.609375 -68.109375 C 228.753906 -72.347656 232.144531 -77.070312 235.78125 -82.28125 C 239.414062 -87.488281 243.472656 -93.785156 247.953125 -101.171875 C 252.429688 -108.566406 257.695312 -117.164062 263.75 -126.96875 C 269.8125 -136.78125 276.835938 -148.46875 284.828125 -162.03125 C 289.910156 -170.75 295.539062 -179.222656 301.71875 -187.453125 C 307.894531 -195.691406 313.945312 -203.019531 319.875 -209.4375 C 325.8125 -215.851562 331.257812 -221 336.21875 -224.875 C 341.1875 -228.75 345.125 -230.6875 348.03125 -230.6875 C 348.757812 -230.6875 349.125 -230.328125 349.125 -229.609375 C 349.125 -229.117188 349.0625 -228.753906 348.9375 -228.515625 C 348.820312 -228.273438 348.160156 -227.546875 346.953125 -226.328125 C 344.046875 -222.703125 341.316406 -218.769531 338.765625 -214.53125 C 336.222656 -210.289062 333.800781 -205.566406 331.5 -200.359375 C 329.207031 -195.148438 327.03125 -189.210938 324.96875 -182.546875 C 322.90625 -175.890625 320.785156 -168.320312 318.609375 -159.84375 C 311.585938 -134.90625 305.109375 -113.773438 299.171875 -96.453125 C 293.242188 -79.140625 287.191406 -64.488281 281.015625 -52.5 C 274.835938 -40.507812 268.175781 -30.640625 261.03125 -22.890625 C 253.882812 -15.140625 245.707031 -8.476562 236.5 -2.90625 C 236.019531 -2.90625 235.78125 -2.664062 235.78125 -2.1875 C 235.78125 -2.1875 236.019531 -2.0625 236.5 -1.8125 C 237.46875 -1.8125 240.128906 -3.019531 244.484375 -5.4375 C 248.847656 -7.863281 252.847656 -10.410156 256.484375 -13.078125 C 260.597656 -15.984375 264.53125 -18.945312 268.28125 -21.96875 C 272.039062 -25 275.796875 -28.390625 279.546875 -32.140625 C 283.304688 -35.898438 287.304688 -40.257812 291.546875 -45.21875 C 295.785156 -50.1875 300.6875 -56.242188 306.25 -63.390625 C 311.820312 -70.535156 318.179688 -78.890625 325.328125 -88.453125 C 332.472656 -98.023438 340.769531 -109.351562 350.21875 -122.4375 C 360.144531 -136.238281 368.863281 -147.921875 376.375 -157.484375 C 383.882812 -167.054688 390.90625 -175.351562 397.4375 -182.375 C 403.976562 -189.394531 410.394531 -195.507812 416.6875 -200.71875 C 422.988281 -205.925781 429.773438 -211.070312 437.046875 -216.15625 C 448.671875 -223.90625 459.75 -229.597656 470.28125 -233.234375 C 480.820312 -236.867188 491.90625 -238.6875 503.53125 -238.6875 C 513.695312 -238.6875 523.019531 -237.171875 531.5 -234.140625 C 539.976562 -231.117188 547.304688 -226.878906 553.484375 -221.421875 C 559.660156 -215.972656 564.441406 -209.554688 567.828125 -202.171875 C 571.222656 -194.785156 572.921875 -186.613281 572.921875 -177.65625 C 572.921875 -172.5625 572.4375 -167.894531 571.46875 -163.65625 C 570.5 -159.425781 569.410156 -157.3125 568.203125 -157.3125 C 567.472656 -157.3125 567.109375 -157.671875 567.109375 -158.390625 L 567.46875 -159.84375 C 568.195312 -161.539062 568.800781 -164.023438 569.28125 -167.296875 C 569.769531 -170.566406 570.015625 -173.65625 570.015625 -176.5625 C 570.015625 -184.550781 568.316406 -191.9375 564.921875 -198.71875 C 561.535156 -205.5 556.9375 -211.429688 551.125 -216.515625 C 545.3125 -221.609375 538.46875 -225.609375 530.59375 -228.515625 C 522.71875 -231.421875 514.300781 -232.875 505.34375 -232.875 C 476.28125 -232.875 446.367188 -218.582031 415.609375 -190 C 409.554688 -184.4375 404.289062 -179.351562 399.8125 -174.75 C 395.332031 -170.144531 390.363281 -164.570312 384.90625 -158.03125 C 379.457031 -151.488281 372.914062 -143.253906 365.28125 -133.328125 C 357.65625 -123.398438 347.546875 -110.082031 334.953125 -93.375 C 324.785156 -79.800781 315.582031 -68.109375 307.34375 -58.296875 C 299.113281 -48.492188 291.546875 -40.082031 284.640625 -33.0625 C 277.742188 -26.039062 271.144531 -20.164062 264.84375 -15.4375 C 258.539062 -10.71875 252.242188 -6.785156 245.953125 -3.640625 C 242.316406 -1.703125 238.378906 0.113281 234.140625 1.8125 C 229.898438 3.507812 227.175781 4.359375 225.96875 4.359375 C 225.238281 4.359375 224.875 3.992188 224.875 3.265625 C 224.875 3.023438 224.992188 2.785156 225.234375 2.546875 C 225.484375 2.304688 226.578125 1.578125 228.515625 0.359375 C 232.390625 -2.546875 235.898438 -5.507812 239.046875 -8.53125 C 242.191406 -11.5625 245.15625 -15.070312 247.9375 -19.0625 C 250.726562 -23.0625 253.515625 -27.96875 256.296875 -33.78125 C 259.085938 -39.59375 262.117188 -46.796875 265.390625 -55.390625 C 268.660156 -63.992188 272.351562 -74.289062 276.46875 -86.28125 C 280.582031 -98.269531 285.425781 -112.617188 291 -129.328125 C 294.875 -140.953125 298.6875 -151.425781 302.4375 -160.75 C 306.195312 -170.082031 309.953125 -178.378906 313.703125 -185.640625 C 317.460938 -192.910156 321.398438 -199.390625 325.515625 -205.078125 C 329.628906 -210.773438 334.109375 -216.046875 338.953125 -220.890625 C 339.679688 -221.609375 340.046875 -222.210938 340.046875 -222.703125 Z M 105.71875 -154.765625 C 105.476562 -153.066406 105.359375 -151.671875 105.359375 -150.578125 C 105.359375 -149.492188 105.359375 -148.585938 105.359375 -147.859375 C 105.359375 -139.140625 108.144531 -130.90625 113.71875 -123.15625 C 117.101562 -126.789062 120.734375 -130.242188 124.609375 -133.515625 C 128.484375 -136.785156 132.359375 -139.691406 136.234375 -142.234375 C 140.109375 -144.773438 143.679688 -146.769531 146.953125 -148.21875 C 150.222656 -149.675781 152.828125 -150.40625 154.765625 -150.40625 C 155.734375 -150.40625 156.21875 -150.039062 156.21875 -149.3125 C 156.21875 -148.832031 155.972656 -148.410156 155.484375 -148.046875 C 155.003906 -147.679688 153.3125 -146.894531 150.40625 -145.6875 C 143.382812 -142.78125 137.144531 -139.328125 131.6875 -135.328125 C 126.238281 -131.328125 120.851562 -126.300781 115.53125 -120.25 C 119.644531 -115.40625 124.0625 -111.953125 128.78125 -109.890625 C 133.507812 -107.835938 139.265625 -106.8125 146.046875 -106.8125 C 156.941406 -106.8125 167.78125 -109.835938 178.5625 -115.890625 C 189.34375 -121.941406 198.125 -129.8125 204.90625 -139.5 C 205.382812 -139.988281 205.742188 -140.234375 205.984375 -140.234375 C 206.953125 -140.234375 207.4375 -139.75 207.4375 -138.78125 C 207.4375 -137.570312 206.40625 -135.691406 204.34375 -133.140625 C 202.289062 -130.597656 199.570312 -127.875 196.1875 -124.96875 C 188.914062 -118.1875 180.859375 -112.976562 172.015625 -109.34375 C 163.179688 -105.71875 154.40625 -103.90625 145.6875 -103.90625 C 138.65625 -103.90625 132.71875 -104.929688 127.875 -106.984375 C 123.03125 -109.046875 118.1875 -112.617188 113.34375 -117.703125 C 101 -101.722656 94.828125 -86.34375 94.828125 -71.5625 C 94.828125 -60.664062 98.09375 -51.765625 104.625 -44.859375 C 111.164062 -37.960938 119.644531 -34.515625 130.0625 -34.515625 C 140.476562 -34.515625 151.191406 -37.722656 162.203125 -44.140625 C 173.222656 -50.554688 183.210938 -58.847656 192.171875 -69.015625 C 201.140625 -79.191406 208.46875 -90.515625 214.15625 -102.984375 C 219.851562 -115.460938 222.703125 -127.757812 222.703125 -139.875 C 222.703125 -152.945312 218.34375 -163.476562 209.625 -171.46875 C 200.90625 -179.46875 189.519531 -183.46875 175.46875 -183.46875 C 151.738281 -183.46875 128.488281 -173.898438 105.71875 -154.765625 Z M 295.359375 1.8125 C 301.660156 -0.363281 307.410156 -3.144531 312.609375 -6.53125 C 317.816406 -9.925781 322.78125 -14.347656 327.5 -19.796875 C 332.226562 -25.242188 337.070312 -31.90625 342.03125 -39.78125 C 347 -47.65625 352.515625 -57.40625 358.578125 -69.03125 C 371.171875 -92.519531 382.128906 -112.253906 391.453125 -128.234375 C 400.773438 -144.222656 409.492188 -157.664062 417.609375 -168.5625 C 425.722656 -179.46875 433.710938 -188.613281 441.578125 -196 C 449.453125 -203.382812 458.234375 -210.226562 467.921875 -216.53125 C 472.046875 -219.1875 475.921875 -221.484375 479.546875 -223.421875 C 483.179688 -225.359375 485.601562 -226.328125 486.8125 -226.328125 C 487.539062 -226.328125 487.90625 -225.96875 487.90625 -225.25 C 487.90625 -224.757812 487.601562 -224.332031 487 -223.96875 C 486.394531 -223.601562 485.125 -222.9375 483.1875 -221.96875 C 476.164062 -218.09375 469.6875 -213.671875 463.75 -208.703125 C 457.8125 -203.742188 452.054688 -197.570312 446.484375 -190.1875 C 440.921875 -182.800781 435.234375 -173.957031 429.421875 -163.65625 C 423.609375 -153.363281 417.3125 -140.953125 410.53125 -126.421875 C 400.59375 -105.597656 391.445312 -87.921875 383.09375 -73.390625 C 374.738281 -58.859375 366.320312 -46.625 357.84375 -36.6875 C 349.363281 -26.757812 340.519531 -18.769531 331.3125 -12.71875 C 322.113281 -6.664062 311.828125 -1.578125 300.453125 2.546875 C 303.835938 3.023438 306.617188 3.382812 308.796875 3.625 C 310.984375 3.875 312.921875 4.117188 314.609375 4.359375 C 316.304688 4.597656 317.941406 4.71875 319.515625 4.71875 C 321.085938 4.71875 322.84375 4.71875 324.78125 4.71875 C 333.5 4.71875 341.488281 3.75 348.75 1.8125 C 356.019531 -0.125 363.109375 -3.570312 370.015625 -8.53125 C 376.921875 -13.5 383.945312 -20.039062 391.09375 -28.15625 C 398.238281 -36.269531 406.171875 -46.503906 414.890625 -58.859375 C 416.335938 -60.546875 417.304688 -61.390625 417.796875 -61.390625 C 418.273438 -61.390625 418.515625 -61.03125 418.515625 -60.3125 C 418.515625 -60.0625 417.785156 -58.96875 416.328125 -57.03125 C 414.878906 -55.09375 413.125 -52.734375 411.0625 -49.953125 C 409.007812 -47.171875 406.832031 -44.265625 404.53125 -41.234375 C 402.226562 -38.203125 400.109375 -35.476562 398.171875 -33.0625 C 391.878906 -25.3125 386.003906 -18.832031 380.546875 -13.625 C 375.097656 -8.414062 369.523438 -4.296875 363.828125 -1.265625 C 358.140625 1.753906 352.207031 3.929688 346.03125 5.265625 C 339.863281 6.597656 333.023438 7.265625 325.515625 7.265625 C 320.179688 7.265625 314.789062 7.019531 309.34375 6.53125 C 303.894531 6.050781 298.992188 5.207031 294.640625 4 C 287.128906 6.664062 279.015625 8 270.296875 8 C 263.992188 8 260.84375 6.785156 260.84375 4.359375 C 260.84375 1.453125 265.203125 0 273.921875 0 C 276.585938 0 278.945312 0.117188 281 0.359375 C 283.0625 0.609375 287.125 1.09375 293.1875 1.8125 Z M 295.359375 1.8125 "/></g></g></g></g></g><g transform="matrix(1, 0, 0, 1, 1087, 374)"><g clip-path="url(#db7b2becfa)"><g fill="#e6aeac" fill-opacity="1"><g transform="translate(0.327323, 341.801933)"><g><path d="M 5.171875 0 L 5.171875 -4.484375 L 21.390625 -4.484375 L 21.390625 -271.953125 L 5.171875 -271.953125 L 5.171875 -276.09375 L 52.796875 -276.09375 L 52.796875 -4.484375 L 69.03125 -4.484375 L 69.03125 0 Z M 5.171875 0 "/></g></g></g><g fill="#e6aeac" fill-opacity="1"><g transform="translate(40.701502, 341.801933)"><g><path d="M 35.203125 -179.46875 C 29.679688 -179.46875 24.90625 -181.476562 20.875 -185.5 C 16.851562 -189.53125 14.84375 -194.304688 14.84375 -199.828125 C 14.84375 -205.347656 16.851562 -210.117188 20.875 -214.140625 C 24.90625 -218.171875 29.679688 -220.1875 35.203125 -220.1875 C 41.179688 -220.1875 46.066406 -218.171875 49.859375 -214.140625 C 53.660156 -210.117188 55.5625 -205.347656 55.5625 -199.828125 C 55.5625 -194.304688 53.660156 -189.53125 49.859375 -185.5 C 46.066406 -181.476562 41.179688 -179.46875 35.203125 -179.46875 Z M 5.171875 0 L 5.171875 -4.140625 L 20.015625 -4.140625 L 20.015625 -162.90625 L 5.171875 -162.90625 L 5.171875 -167.046875 L 50.734375 -167.046875 L 50.734375 -4.140625 L 65.578125 -4.140625 L 65.578125 0 Z M 5.171875 0 "/></g></g></g><g fill="#e6aeac" fill-opacity="1"><g transform="translate(77.624628, 341.801933)"><g><path d="M 36.234375 2.421875 C 25.648438 2.421875 17.828125 -1.546875 12.765625 -9.484375 C 7.703125 -17.421875 5.171875 -27.03125 5.171875 -38.3125 C 5.171875 -49.8125 9.023438 -59.414062 16.734375 -67.125 C 24.441406 -74.832031 35.253906 -82.191406 49.171875 -89.203125 C 63.097656 -96.222656 79.378906 -104.566406 98.015625 -114.234375 L 98.015625 -131.140625 C 98.015625 -141.265625 95.082031 -149.601562 89.21875 -156.15625 C 83.351562 -162.71875 76.851562 -166 69.71875 -166 C 65.34375 -166 60.507812 -164.847656 55.21875 -162.546875 C 49.925781 -160.253906 44.976562 -157.035156 40.375 -152.890625 C 35.539062 -148.742188 32.375 -144.769531 30.875 -140.96875 C 29.382812 -137.175781 29.445312 -134.707031 31.0625 -133.5625 C 32.90625 -135.175781 34.914062 -136.382812 37.09375 -137.1875 C 39.28125 -137.988281 41.523438 -138.503906 43.828125 -138.734375 C 50.960938 -138.734375 56.832031 -136.085938 61.4375 -130.796875 C 65.34375 -126.429688 67.066406 -121.3125 66.609375 -115.4375 C 66.148438 -109.570312 63.617188 -104.6875 59.015625 -100.78125 C 54.640625 -96.863281 49.519531 -95.191406 43.65625 -95.765625 C 37.789062 -96.347656 32.898438 -98.820312 28.984375 -103.1875 C 26.222656 -105.945312 24.269531 -108.828125 23.125 -111.828125 C 20.59375 -120.335938 20.648438 -128.15625 23.296875 -135.28125 C 25.941406 -142.414062 31.632812 -149.78125 40.375 -157.375 C 45.207031 -161.289062 50.441406 -164.515625 56.078125 -167.046875 C 61.710938 -169.578125 66.945312 -170.84375 71.78125 -170.84375 C 90.882812 -170.84375 105.265625 -166.640625 114.921875 -158.234375 C 124.585938 -149.835938 129.421875 -135.863281 129.421875 -116.3125 L 129.078125 -4.484375 L 145.640625 -4.484375 L 145.640625 0 L 81.796875 0 L 81.796875 -4.484375 L 98.359375 -4.484375 L 98.359375 -45.90625 C 93.984375 -35.09375 88.285156 -26.117188 81.265625 -18.984375 C 74.253906 -11.847656 66.835938 -6.492188 59.015625 -2.921875 C 51.191406 0.640625 43.597656 2.421875 36.234375 2.421875 Z M 30.375 -34.859375 C 30.375 -25.648438 32.15625 -19.085938 35.71875 -15.171875 C 39.28125 -11.265625 43.820312 -9.425781 49.34375 -9.65625 C 54.875 -9.894531 60.628906 -11.851562 66.609375 -15.53125 C 72.585938 -19.207031 78.109375 -24.09375 83.171875 -30.1875 C 88.234375 -36.289062 92.03125 -43.140625 94.5625 -50.734375 C 95.25 -52.804688 95.878906 -54.816406 96.453125 -56.765625 C 97.035156 -58.722656 97.554688 -60.738281 98.015625 -62.8125 L 98.015625 -108.71875 C 85.585938 -102.96875 75.117188 -97.675781 66.609375 -92.84375 C 58.097656 -88.007812 51.140625 -83.0625 45.734375 -78 C 40.328125 -72.9375 36.414062 -67.007812 34 -60.21875 C 31.582031 -53.4375 30.375 -44.984375 30.375 -34.859375 Z M 30.375 -34.859375 "/></g></g></g></g></g><g transform="matrix(1, 0, 0, 1, 996, 789)"><g clip-path="url(#ec7cdbbf2f)"><g fill="#e6aeac" fill-opacity="1"><g transform="translate(12.124393, 311.13333)"><g><path d="M 9.15625 2.90625 L 2.9375 0.9375 L 13.40625 -32.046875 L 23.6875 -28.78125 L 22.453125 -1.140625 L 37.3125 -24.453125 L 47.6875 -21.171875 L 37.21875 11.8125 L 30.984375 9.84375 L 39.96875 -18.46875 L 23.125 7.34375 L 17.03125 5.40625 L 18.09375 -25.234375 Z M 9.15625 2.90625 "/></g></g></g><g fill="#e6aeac" fill-opacity="1"><g transform="translate(64.187533, 325.333526)"><g><path d="M 18.546875 0.578125 C 15.703125 0.585938 13.21875 0.113281 11.09375 -0.84375 C 8.976562 -1.8125 7.226562 -3.125 5.84375 -4.78125 C 4.46875 -6.4375 3.4375 -8.34375 2.75 -10.5 C 2.0625 -12.664062 1.710938 -14.941406 1.703125 -17.328125 C 1.691406 -19.710938 2.019531 -21.988281 2.6875 -24.15625 C 3.363281 -26.320312 4.382812 -28.238281 5.75 -29.90625 C 7.125 -31.582031 8.863281 -32.898438 10.96875 -33.859375 C 13.082031 -34.816406 15.5625 -35.300781 18.40625 -35.3125 C 21.28125 -35.332031 23.78125 -34.867188 25.90625 -33.921875 C 28.03125 -32.972656 29.78125 -31.664062 31.15625 -30 C 32.539062 -28.34375 33.578125 -26.4375 34.265625 -24.28125 C 34.953125 -22.125 35.300781 -19.851562 35.3125 -17.46875 C 35.320312 -15.082031 34.988281 -12.800781 34.3125 -10.625 C 33.644531 -8.457031 32.625 -6.539062 31.25 -4.875 C 29.882812 -3.207031 28.144531 -1.882812 26.03125 -0.90625 C 23.914062 0.0625 21.421875 0.554688 18.546875 0.578125 Z M 18.53125 -5.28125 C 20.675781 -5.289062 22.488281 -5.800781 23.96875 -6.8125 C 25.445312 -7.832031 26.578125 -9.257812 27.359375 -11.09375 C 28.140625 -12.9375 28.523438 -15.050781 28.515625 -17.4375 C 28.503906 -19.820312 28.101562 -21.910156 27.3125 -23.703125 C 26.519531 -25.503906 25.378906 -26.90625 23.890625 -27.90625 C 22.398438 -28.914062 20.582031 -29.414062 18.4375 -29.40625 C 16.351562 -29.40625 14.566406 -28.894531 13.078125 -27.875 C 11.585938 -26.863281 10.453125 -25.453125 9.671875 -23.640625 C 8.890625 -21.835938 8.503906 -19.742188 8.515625 -17.359375 C 8.523438 -14.972656 8.925781 -12.863281 9.71875 -11.03125 C 10.507812 -9.207031 11.65625 -7.789062 13.15625 -6.78125 C 14.65625 -5.78125 16.445312 -5.28125 18.53125 -5.28125 Z M 18.53125 -5.28125 "/></g></g></g><g fill="#e6aeac" fill-opacity="1"><g transform="translate(112.667352, 323.25262)"><g><path d="M 12.625 -3.703125 L 2.953125 -0.859375 L -6.765625 -34.078125 L 2.90625 -36.921875 C 8.53125 -38.566406 13.25 -38.382812 17.0625 -36.375 C 20.875 -34.375 23.5625 -30.703125 25.125 -25.359375 C 26.675781 -20.054688 26.378906 -15.53125 24.234375 -11.78125 C 22.097656 -8.03125 18.226562 -5.335938 12.625 -3.703125 Z M 1.140625 -30.3125 L 7.578125 -8.3125 L 10.890625 -9.28125 C 13.097656 -9.925781 14.941406 -10.832031 16.421875 -12 C 17.898438 -13.175781 18.875 -14.707031 19.34375 -16.59375 C 19.820312 -18.476562 19.660156 -20.785156 18.859375 -23.515625 C 18.109375 -26.097656 17.03125 -28.0625 15.625 -29.40625 C 14.226562 -30.75 12.582031 -31.5625 10.6875 -31.84375 C 8.789062 -32.125 6.726562 -31.941406 4.5 -31.296875 Z M 1.140625 -30.3125 "/></g></g></g><g fill="#e6aeac" fill-opacity="1"><g transform="translate(154.5435, 309.397435)"><g><path d="M 6.125 -3.75 L 0.265625 -0.15625 L -7.390625 -36.046875 L -1.265625 -39.796875 L 27.203125 -16.640625 L 21.34375 -13.0625 L 15.625 -17.90625 L 4.375 -11.03125 Z M -0.609375 -31.84375 L 2.96875 -16.875 L 11.09375 -21.84375 Z M -0.609375 -31.84375 "/></g></g></g><g fill="#e6aeac" fill-opacity="1"><g transform="translate(189.436275, 285.75904)"><g/></g></g><g fill="#e6aeac" fill-opacity="1"><g transform="translate(205.473444, 270.727677)"><g><path d="M 5.796875 -7.65625 L 1.859375 -2.453125 L -25.734375 -23.328125 L -11.796875 -41.75 L -7.140625 -38.234375 L -17.140625 -25.015625 L -10.34375 -19.859375 L -1.390625 -31.703125 L 3.25 -28.203125 L -5.703125 -16.359375 Z M 5.796875 -7.65625 "/></g></g></g><g fill="#e6aeac" fill-opacity="1"><g transform="translate(227.436497, 239.730981)"><g><path d="M 10.5625 -23.953125 L 1.25 -2.8125 L -30.421875 -16.78125 L -21.109375 -37.921875 L -15.75 -35.5625 L -22.4375 -20.40625 L -14.640625 -16.96875 L -8.640625 -30.546875 L -3.3125 -28.203125 L -9.3125 -14.625 L -1.46875 -11.15625 L 5.21875 -26.3125 Z M 10.5625 -23.953125 "/></g></g></g><g fill="#e6aeac" fill-opacity="1"><g transform="translate(242.85752, 203.194298)"><g><path d="M 1.28125 -9.515625 L 0.40625 -3.046875 L -33.890625 -7.671875 L -32.4375 -18.375 L -5 -21.921875 L -30.53125 -32.546875 L -29.078125 -43.328125 L 5.21875 -38.703125 L 4.34375 -32.21875 L -25.09375 -36.1875 L 3.25 -24.046875 L 2.390625 -17.71875 L -27.984375 -13.46875 Z M 1.28125 -9.515625 "/></g></g></g><g fill="#e6aeac" fill-opacity="1"><g transform="translate(247.006576, 150.813645)"><g><path d="M -0.921875 -9.5625 L -0.296875 -3.0625 L -34.75 0.25 L -35.375 -6.25 Z M -0.921875 -9.5625 "/></g></g></g><g fill="#e6aeac" fill-opacity="1"><g transform="translate(244.879094, 127.965643)"><g><path d="M -2.828125 -9.1875 L -0.90625 -2.9375 L -33.984375 7.265625 L -36.15625 0.234375 L -16.671875 -20.625 L -40.34375 -13.328125 L -42.265625 -19.5625 L -9.1875 -29.765625 L -7 -22.703125 L -26.53125 -1.875 Z M -2.828125 -9.1875 "/></g></g></g><g fill="#e6aeac" fill-opacity="1"><g transform="translate(229.791941, 86.300503)"><g><path d="M -4.625 -8.421875 L -1.484375 -2.703125 L -31.8125 13.96875 L -34.953125 8.25 Z M -4.625 -8.421875 "/></g></g></g><g fill="#e6aeac" fill-opacity="1"><g transform="translate(218.79853, 66.164987)"><g><path d="M -6.234375 -7.3125 L -2 -2.34375 L -28.328125 20.125 L -33.109375 14.53125 L -23.46875 -12.34375 L -42.3125 3.734375 L -46.546875 -1.234375 L -20.21875 -23.703125 L -15.421875 -18.078125 L -25.109375 8.796875 Z M -6.234375 -7.3125 "/></g></g></g><g fill="#e6aeac" fill-opacity="1"><g transform="translate(188.092894, 32.72312)"><g><path d="M -5.9375 -4.03125 L -0.265625 -0.171875 L -29.78125 21.609375 L -35.71875 17.59375 L -26.390625 -17.90625 L -20.71875 -14.046875 L -22.765625 -6.828125 L -11.84375 0.5625 Z M -28.75 13.703125 L -16.59375 4.265625 L -24.46875 -1.078125 Z M -28.75 13.703125 "/></g></g></g></g></g></svg>